<svg xmlns="http://www.w3.org/2000/svg"><symbol id="mecha-stilts" viewBox="0 0 97 112"><path d="M34.5 69.1h9.2v5.79h-9.2zm11.1 0h5.9v5.79h-5.9zm7.7 0h9.2v5.79h-9.2zm-4.8-38.4c-10.8 0-19.8 6.5-20.2 18.4h40.4c-.4-11.9-9.4-18.4-20.2-18.4zM26.8 69.1h5.9v5.79h-5.9zm-5.5-1.9h54.4V50.9H21.3zM48 61h22.5a1 1 0 0 1 .9.9 1.1 1.1 0 0 1-.9.9H48a1.1 1.1 0 0 1-.9-.9 1 1 0 0 1 .9-.9z"/><path d="M48.5 0L0 28v56l48.5 28L97 84V28zm29.1 68.1a.9.9 0 0 1-1 1H72v5.8h4.6a1 1 0 0 1 1 .9 1.1 1.1 0 0 1-1 .9H20.4a1.1 1.1 0 0 1-1-.9 1 1 0 0 1 1-.9H25v-5.8h-4.6a.9.9 0 0 1-1-1V50a.9.9 0 0 1 1-.9h6c.5-13.1 10.2-20.2 22.1-20.2S70.1 36 70.6 49.1h6a.9.9 0 0 1 1 .9z"/><path d="M64.3 69.1h5.9v5.79h-5.9z"/></symbol><symbol id="super-domes" viewBox="0 0 97 112"><path d="M22.8 64.6h24.7v10.21H22.8zm24.8-8.7V37.3L34.3 55.9h13.3zm1.8-20.5v20.5h25.4a27.3 27.3 0 0 0-25.4-20.5zm0 29.2h4.1v10.21h-4.1zm-2.7-29.1a27.2 27.2 0 0 0-24.5 20.4H32z"/><path d="M48.5 0L0 28v56l48.5 28L97 84V28zm39.6 64.6H76v11.2a.9.9 0 0 1-.9.9H21.9a.9.9 0 0 1-.9-.9V64.6H8.9a1 1 0 0 1-1-.9 1.1 1.1 0 0 1 1-.9h6.9v-6a.8.8 0 0 1 .9-.9h3.6a29 29 0 0 1 28.1-22.3c.1-.1.2-.1.4 0a28.9 28.9 0 0 1 27.9 22.3h3.6a.8.8 0 0 1 .9.9v6h6.9a1.1 1.1 0 0 1 1 .9 1 1 0 0 1-1 .9z"/><path d="M17.6 57.7h61.8v5.06H17.6zm37.8 6.9h18.8v10.21H55.4z"/></symbol><symbol id="space-bubbles" viewBox="0 0 97 112"><path d="M35.1 65.6H29l-8.1 9.5 1.3 1.9 15.5-8.2-2.6-3.2zm-11.3-6.7h50.3v4.78H23.8zm44-1.8a23.3 23.3 0 0 0 1.1-7 19.9 19.9 0 1 0-39.8 0 18.1 18.1 0 0 0 1.1 7zM30.3 74.9h12.5L39 70.3l-8.7 4.6zm31.6-9.3l-2.7 3.2L74.8 77l1.3-1.8-8.1-9.6h-6.1z"/><path d="M48.5 0L0 28v56l48.5 28L97 84V28zm29.4 75.7l-2.1 3a.9.9 0 0 1-1.2.3l-4.4-2.3H26.7L22.3 79a1 1 0 0 1-1.2-.3l-2.1-3a.9.9 0 0 1 .1-1.1l7.6-9h-3.8a.9.9 0 0 1-.9-1V58a.9.9 0 0 1 .9-.9h5.4a23.7 23.7 0 0 1-1-7 21.8 21.8 0 0 1 43.5 0 20.9 20.9 0 0 1-1.1 7h5.4a.9.9 0 0 1 .9.9v6.6a.9.9 0 0 1-.9 1h-4.7l7.5 9a.9.9 0 0 1 0 1.1z"/><path d="M54.2 74.9h12.5L58 70.3l-3.8 4.6zm-16.7-9.3l7.7 9.3h6.6l7.7-9.3h-22z"/></symbol></svg>